<svg width="80" height="24" viewBox="0 0 80 24" fill="none" xmlns="http://www.w3.org/2000/svg">
<g id="Dining">
<path id="Vector" d="M76.2554 5.71212V7.41612C75.1994 6.14412 73.6154 5.56812 71.8154 5.56812C68.1434 5.56812 65.3354 8.01612 65.3354 11.7361C65.3354 15.4561 68.1434 17.9521 71.8154 17.9521C73.5434 17.9521 75.0555 17.4001 76.1115 16.2481V16.9201C76.1115 19.5121 74.8634 20.8081 72.0314 20.8081C70.2554 20.8081 68.4314 20.2081 67.3034 19.2721L65.9594 21.5281C67.4234 22.7281 69.7994 23.3521 72.1994 23.3521C76.6874 23.3521 79.1115 21.2401 79.1115 16.5841V5.71212H76.2554ZM72.2714 15.4081C69.9914 15.4081 68.3594 13.9201 68.3594 11.7361C68.3594 9.57612 69.9914 8.11212 72.2714 8.11212C74.5274 8.11212 76.1594 9.57612 76.1594 11.7361C76.1594 13.9201 74.5274 15.4081 72.2714 15.4081Z" fill="#333333"/>
<path id="Vector_2" d="M57.1167 5.56812C55.2447 5.56812 53.6847 6.19212 52.7007 7.36812V5.71212H49.8447V18.5281H52.8447V12.0481C52.8447 9.48012 54.2847 8.18412 56.4207 8.18412C58.3407 8.18412 59.4687 9.28812 59.4687 11.5681V18.5281H62.4687V11.1841C62.4687 7.32012 60.1887 5.56812 57.1167 5.56812Z" fill="#333333"/>
<path id="Vector_3" d="M44.4195 3.6C45.5475 3.6 46.3395 2.784 46.3395 1.728C46.3395 0.743999 45.5235 0 44.4195 0C43.3155 0 42.4995 0.792 42.4995 1.8C42.4995 2.808 43.3155 3.6 44.4195 3.6ZM42.9075 18.528H45.9075V5.712H42.9075V18.528Z" fill="#333333"/>
<path id="Vector_4" d="M33.7495 5.56812C31.8775 5.56812 30.3175 6.19212 29.3335 7.36812V5.71212H26.4775V18.5281H29.4775V12.0481C29.4775 9.48012 30.9175 8.18412 33.0535 8.18412C34.9735 8.18412 36.1015 9.28812 36.1015 11.5681V18.5281H39.1015V11.1841C39.1015 7.32012 36.8215 5.56812 33.7495 5.56812Z" fill="#333333"/>
<path id="Vector_5" d="M21.0523 3.6C22.1803 3.6 22.9723 2.784 22.9723 1.728C22.9723 0.743999 22.1563 0 21.0523 0C19.9483 0 19.1323 0.792 19.1323 1.8C19.1323 2.808 19.9483 3.6 21.0523 3.6ZM19.5403 18.528H22.5403V5.712H19.5403V18.528Z" fill="#333333"/>
<path id="Vector_6" d="M0 18.528H7.344C12.792 18.528 16.512 15.168 16.512 10.128C16.512 5.08803 12.792 1.72803 7.344 1.72803H0V18.528ZM3.12 15.888V4.36803H7.2C10.944 4.36803 13.368 6.64803 13.368 10.128C13.368 13.608 10.944 15.888 7.2 15.888H3.12Z" fill="#333333"/>
</g>
</svg>
