<svg width="72" height="24" viewBox="0 0 72 24" fill="none" xmlns="http://www.w3.org/2000/svg">
<g id="Group 92">
<g id="Living">
<path id="Vector" d="M68.2398 5.71212V7.41612C67.1838 6.14412 65.5998 5.56812 63.7998 5.56812C60.1278 5.56812 57.3198 8.01612 57.3198 11.7361C57.3198 15.4561 60.1278 17.9521 63.7998 17.9521C65.5278 17.9521 67.0398 17.4001 68.0958 16.2481V16.9201C68.0958 19.5121 66.8478 20.8081 64.0158 20.8081C62.2398 20.8081 60.4158 20.2081 59.2878 19.2721L57.9438 21.5281C59.4078 22.7281 61.7838 23.3521 64.1838 23.3521C68.6718 23.3521 71.0958 21.2401 71.0958 16.5841V5.71212H68.2398ZM64.2558 15.4081C61.9758 15.4081 60.3438 13.9201 60.3438 11.7361C60.3438 9.57612 61.9758 8.11212 64.2558 8.11212C66.5118 8.11212 68.1438 9.57612 68.1438 11.7361C68.1438 13.9201 66.5118 15.4081 64.2558 15.4081Z" fill="#333333"/>
<path id="Vector_2" d="M49.1011 5.56812C47.2291 5.56812 45.6691 6.19212 44.6851 7.36812V5.71212H41.8291V18.5281H44.8291V12.0481C44.8291 9.48012 46.2691 8.18412 48.4051 8.18412C50.3251 8.18412 51.4531 9.28812 51.4531 11.5681V18.5281H54.4531V11.1841C54.4531 7.32012 52.1731 5.56812 49.1011 5.56812Z" fill="#333333"/>
<path id="Vector_3" d="M36.4039 3.6C37.5319 3.6 38.3239 2.784 38.3239 1.728C38.3239 0.743999 37.5079 0 36.4039 0C35.2999 0 34.4839 0.792 34.4839 1.8C34.4839 2.808 35.2999 3.6 36.4039 3.6ZM34.8919 18.528H37.8919V5.712H34.8919V18.528Z" fill="#333333"/>
<path id="Vector_4" d="M30.6162 6L26.5122 15.504L22.5282 6H19.4082L24.9042 18.816H28.0002L33.4962 6H30.6162Z" fill="#333333"/>
<path id="Vector_5" d="M15.5914 3.6C16.7194 3.6 17.5114 2.784 17.5114 1.728C17.5114 0.743999 16.6954 0 15.5914 0C14.4874 0 13.6714 0.792 13.6714 1.8C13.6714 2.808 14.4874 3.6 15.5914 3.6ZM14.0794 18.528H17.0794V5.712H14.0794V18.528Z" fill="#333333"/>
<path id="Vector_6" d="M0 18.528H11.904V15.888H3.12V1.72803H0V18.528Z" fill="#333333"/>
</g>
</g>
</svg>
