<svg width="112" height="18" viewBox="0 0 112 18" fill="none" xmlns="http://www.w3.org/2000/svg">
<g id="Group 93">
<g id="Bedroom">
<path id="Vector" d="M106.333 4.8479C107.357 4.8479 108.261 5.0479 109.045 5.4479C109.845 5.8479 110.469 6.4639 110.917 7.2959C111.365 8.1119 111.589 9.1679 111.589 10.4639V17.8079H108.589V10.8479C108.589 9.7119 108.341 8.8639 107.845 8.3039C107.349 7.7439 106.637 7.4639 105.709 7.4639C105.053 7.4639 104.469 7.6079 103.957 7.8959C103.461 8.1839 103.069 8.6079 102.781 9.1679C102.509 9.7279 102.373 10.4399 102.373 11.3039V17.8079H99.3732V10.8479C99.3732 9.7119 99.1252 8.8639 98.6292 8.3039C98.1332 7.7439 97.4212 7.4639 96.4932 7.4639C95.8372 7.4639 95.2532 7.6079 94.7412 7.8959C94.2452 8.1839 93.8532 8.6079 93.5652 9.1679C93.2932 9.7279 93.1572 10.4399 93.1572 11.3039V17.8079H90.1572V4.9919H93.0132V8.3999L92.5092 7.3919C92.9412 6.5599 93.5652 5.9279 94.3812 5.4959C95.2132 5.0639 96.1572 4.8479 97.2132 4.8479C98.4132 4.8479 99.4532 5.1439 100.333 5.7359C101.229 6.3279 101.821 7.2239 102.109 8.4239L100.933 8.0159C101.349 7.0559 102.037 6.2879 102.997 5.7119C103.957 5.1359 105.069 4.8479 106.333 4.8479Z" fill="#333333"/>
<path id="Vector_2" d="M80.4488 17.9761C79.1368 17.9761 77.9688 17.6961 76.9448 17.1361C75.9208 16.5601 75.1128 15.7761 74.5208 14.7841C73.9288 13.7921 73.6328 12.6641 73.6328 11.4001C73.6328 10.1201 73.9288 8.99215 74.5208 8.01614C75.1128 7.02414 75.9208 6.24815 76.9448 5.68815C77.9688 5.12815 79.1368 4.84814 80.4488 4.84814C81.7768 4.84814 82.9528 5.12815 83.9768 5.68815C85.0168 6.24815 85.8248 7.01615 86.4008 7.99215C86.9928 8.96815 87.2888 10.1041 87.2888 11.4001C87.2888 12.6641 86.9928 13.7921 86.4008 14.7841C85.8248 15.7761 85.0168 16.5601 83.9768 17.1361C82.9528 17.6961 81.7768 17.9761 80.4488 17.9761ZM80.4488 15.4081C81.1848 15.4081 81.8408 15.2481 82.4168 14.9281C82.9928 14.6081 83.4408 14.1441 83.7608 13.5361C84.0968 12.9281 84.2648 12.2161 84.2648 11.4001C84.2648 10.5681 84.0968 9.85614 83.7608 9.26414C83.4408 8.65614 82.9928 8.19214 82.4168 7.87214C81.8408 7.55215 81.1928 7.39215 80.4728 7.39215C79.7368 7.39215 79.0808 7.55215 78.5048 7.87214C77.9448 8.19214 77.4968 8.65614 77.1608 9.26414C76.8248 9.85614 76.6568 10.5681 76.6568 11.4001C76.6568 12.2161 76.8248 12.9281 77.1608 13.5361C77.4968 14.1441 77.9448 14.6081 78.5048 14.9281C79.0808 15.2481 79.7288 15.4081 80.4488 15.4081Z" fill="#333333"/>
<path id="Vector_3" d="M64.9796 17.9759C63.6676 17.9759 62.4996 17.6959 61.4756 17.1359C60.4516 16.5599 59.6436 15.7759 59.0516 14.7839C58.4596 13.7919 58.1636 12.6639 58.1636 11.3999C58.1636 10.1199 58.4596 8.9919 59.0516 8.0159C59.6436 7.0239 60.4516 6.2479 61.4756 5.6879C62.4996 5.1279 63.6676 4.8479 64.9796 4.8479C66.3076 4.8479 67.4836 5.1279 68.5076 5.6879C69.5476 6.2479 70.3556 7.0159 70.9316 7.9919C71.5236 8.9679 71.8196 10.1039 71.8196 11.3999C71.8196 12.6639 71.5236 13.7919 70.9316 14.7839C70.3556 15.7759 69.5476 16.5599 68.5076 17.1359C67.4836 17.6959 66.3076 17.9759 64.9796 17.9759ZM64.9796 15.4079C65.7156 15.4079 66.3716 15.2479 66.9476 14.9279C67.5236 14.6079 67.9716 14.1439 68.2916 13.5359C68.6276 12.9279 68.7956 12.2159 68.7956 11.3999C68.7956 10.5679 68.6276 9.8559 68.2916 9.2639C67.9716 8.6559 67.5236 8.1919 66.9476 7.8719C66.3716 7.5519 65.7236 7.3919 65.0036 7.3919C64.2676 7.3919 63.6116 7.5519 63.0356 7.8719C62.4756 8.1919 62.0276 8.6559 61.6916 9.2639C61.3556 9.8559 61.1876 10.5679 61.1876 11.3999C61.1876 12.2159 61.3556 12.9279 61.6916 13.5359C62.0276 14.1439 62.4756 14.6079 63.0356 14.9279C63.6116 15.2479 64.2596 15.4079 64.9796 15.4079Z" fill="#333333"/>
<path id="Vector_4" d="M49.376 17.8079V4.9919H52.232V8.5199L51.896 7.4879C52.28 6.6239 52.88 5.9679 53.696 5.5199C54.528 5.0719 55.56 4.8479 56.792 4.8479V7.7039C56.664 7.6719 56.544 7.6559 56.432 7.6559C56.32 7.6399 56.208 7.6319 56.096 7.6319C54.96 7.6319 54.056 7.9679 53.384 8.6399C52.712 9.2959 52.376 10.2799 52.376 11.5919V17.8079H49.376Z" fill="#333333"/>
<path id="Vector_5" d="M38.3233 17.976C37.0913 17.976 35.9793 17.704 34.9873 17.16C34.0113 16.6 33.2433 15.832 32.6833 14.856C32.1233 13.88 31.8433 12.728 31.8433 11.4C31.8433 10.072 32.1233 8.92 32.6833 7.944C33.2433 6.968 34.0113 6.208 34.9873 5.664C35.9793 5.12 37.0913 4.848 38.3233 4.848C39.3953 4.848 40.3553 5.088 41.2033 5.568C42.0513 6.032 42.7233 6.744 43.2193 7.704C43.7153 8.664 43.9633 9.896 43.9633 11.4C43.9633 12.888 43.7233 14.12 43.2433 15.096C42.7633 16.056 42.0993 16.776 41.2513 17.256C40.4033 17.736 39.4273 17.976 38.3233 17.976ZM38.6833 15.408C39.4033 15.408 40.0433 15.248 40.6033 14.928C41.1793 14.608 41.6353 14.144 41.9713 13.536C42.3233 12.928 42.4993 12.216 42.4993 11.4C42.4993 10.568 42.3233 9.856 41.9713 9.264C41.6353 8.656 41.1793 8.192 40.6033 7.872C40.0433 7.552 39.4033 7.392 38.6833 7.392C37.9633 7.392 37.3153 7.552 36.7393 7.872C36.1793 8.192 35.7233 8.656 35.3713 9.264C35.0353 9.856 34.8673 10.568 34.8673 11.4C34.8673 12.216 35.0353 12.928 35.3713 13.536C35.7233 14.144 36.1793 14.608 36.7393 14.928C37.3153 15.248 37.9633 15.408 38.6833 15.408ZM42.5713 17.808V14.784L42.6913 11.376L42.4513 7.968V0H45.4273V17.808H42.5713Z" fill="#333333"/>
<path id="Vector_6" d="M23.9936 17.9759C22.5696 17.9759 21.3216 17.6959 20.2496 17.1359C19.1936 16.5599 18.3696 15.7759 17.7776 14.7839C17.2016 13.7919 16.9136 12.6639 16.9136 11.3999C16.9136 10.1199 17.1936 8.9919 17.7536 8.0159C18.3296 7.0239 19.1136 6.2479 20.1056 5.6879C21.1136 5.1279 22.2576 4.8479 23.5376 4.8479C24.7856 4.8479 25.8976 5.1199 26.8736 5.6639C27.8496 6.2079 28.6176 6.9759 29.1776 7.9679C29.7376 8.9599 30.0176 10.1279 30.0176 11.4719C30.0176 11.5999 30.0096 11.7439 29.9936 11.9039C29.9936 12.0639 29.9856 12.2159 29.9696 12.3599H19.2896V10.3679H28.3856L27.2096 10.9919C27.2256 10.2559 27.0736 9.6079 26.7536 9.0479C26.4336 8.4879 25.9936 8.0479 25.4336 7.7279C24.8896 7.4079 24.2576 7.2479 23.5376 7.2479C22.8016 7.2479 22.1536 7.4079 21.5936 7.7279C21.0496 8.0479 20.6176 8.4959 20.2976 9.0719C19.9936 9.6319 19.8416 10.2959 19.8416 11.0639V11.5439C19.8416 12.3119 20.0176 12.9919 20.3696 13.5839C20.7216 14.1759 21.2176 14.6319 21.8576 14.9519C22.4976 15.2719 23.2336 15.4319 24.0656 15.4319C24.7856 15.4319 25.4336 15.3199 26.0096 15.0959C26.5856 14.8719 27.0976 14.5199 27.5456 14.0399L29.1536 15.8879C28.5776 16.5599 27.8496 17.0799 26.9696 17.4479C26.1056 17.7999 25.1136 17.9759 23.9936 17.9759Z" fill="#333333"/>
<path id="Vector_7" d="M0 17.8081V1.00806H7.872C9.888 1.00806 11.424 1.40806 12.48 2.20806C13.536 2.99206 14.064 4.04806 14.064 5.37606C14.064 6.27206 13.856 7.04006 13.44 7.68006C13.024 8.30406 12.464 8.79206 11.76 9.14406C11.072 9.48006 10.32 9.64806 9.504 9.64806L9.936 8.78406C10.88 8.78406 11.728 8.96006 12.48 9.31206C13.232 9.64806 13.824 10.1441 14.256 10.8001C14.704 11.4561 14.928 12.2721 14.928 13.2481C14.928 14.6881 14.376 15.8081 13.272 16.6081C12.168 17.4081 10.528 17.8081 8.352 17.8081H0ZM3.12 15.3601H8.16C9.328 15.3601 10.224 15.1681 10.848 14.7841C11.472 14.4001 11.784 13.7841 11.784 12.9361C11.784 12.1041 11.472 11.4961 10.848 11.1121C10.224 10.7121 9.328 10.5121 8.16 10.5121H2.88V8.08806H7.536C8.624 8.08806 9.456 7.89606 10.032 7.51206C10.624 7.12806 10.92 6.55206 10.92 5.78406C10.92 5.00006 10.624 4.41606 10.032 4.03206C9.456 3.64806 8.624 3.45606 7.536 3.45606H3.12V15.3601Z" fill="#333333"/>
</g>
</g>
</svg>
